<?xml version="1.0" encoding="UTF-8"?>
<!DOCTYPE svg PUBLIC "-//W3C//DTD SVG 1.1//EN" "http://www.w3.org/Graphics/SVG/1.1/DTD/svg11.dtd">
<!-- Creator: CorelDRAW 2019 (64-Bit) -->
<svg xmlns="http://www.w3.org/2000/svg" xml:space="preserve" width="300mm" height="180mm" version="1.1" style="shape-rendering:geometricPrecision; text-rendering:geometricPrecision; image-rendering:optimizeQuality; fill-rule:evenodd; clip-rule:evenodd"
viewBox="0 0 30000 18000"
 xmlns:xlink="http://www.w3.org/1999/xlink"
 xmlns:xodm="http://www.corel.com/coreldraw/odm/2003">
 <defs>
  <style type="text/css">
   <![CDATA[
    .fil1 {fill:#FEFEFE}
    .fil0 {fill:black}
   ]]>
  </style>
 </defs>
 <g id="Warstwa_x0020_1">
  <metadata id="CorelCorpID_0Corel-Layer"/>
  <rect class="fil0" x="-2.93" y="0.07" width="30000" height="18000"/>
  <path class="fil1" d="M14652.93 8894.83l555.33 -555.34 555.33 555.34 2797.07 0 -1309.78 -1674.36c-1.2,-1.43 -495.68,-687.67 -480.42,-1455.33l20.08 0.58 -20.08 -1.32c0,-1252.65 1143.85,-2036.74 2066.88,-2036.74 923.03,0 1543.54,510.48 1873.28,1203.97 81.36,159.52 74.68,-149.21 178.26,-261.69l0 1679.15c-157.17,-23.65 -175.87,-986.85 -431.15,-1417.46 -315.09,-567.79 -862.84,-963.41 -1620.39,-963.41 -755.33,0 -1802.74,801.62 -1808.84,1804.34l0.27 0.02c-13.56,681.83 415.87,1292.21 416.92,1293.46l1424.01 1828.79 3359.98 0 0 -4556.83 -0.01 0c0,-557.38 -527.99,-476.56 -649.09,-588.08l1522.82 0c-121.11,111.52 -649.1,30.7 -649.1,588.08l-0.01 0 0 4289.75 2862.09 -4289.75c432.05,-588.08 -208.26,-476.56 -329.36,-588.08l1522.82 0c-121.1,111.52 -385.51,-120.11 -921.29,600.82l-0.01 0 -3023.16 4544.09 4346 0 0 -0.02c557.38,0 476.56,-527.99 588.09,-649.09l0 1522.82c-111.53,-121.1 -30.71,-649.09 -588.09,-649.09l0 -0.02 -4343.22 0 3251.61 4513.57 0.01 0c535.78,720.94 783.27,421.62 921.3,600.83l-1522.82 0c121.1,-111.53 713.47,-109.98 301.15,-582.45l-3065.12 -4285.52 0 4279.88 0.01 0c0,557.38 527.99,476.56 649.1,588.09l-1522.82 0c121.1,-111.53 649.09,-30.71 649.09,-588.09l0.01 0 0 -4526.31 -3185.08 0 1427.96 1833.87 0.18 -0.14c1.2,1.43 430.99,497.26 415.73,1264.92 0,1252.65 -1127.37,2046.25 -2050.4,2046.25 -879.33,0 -1491.78,-435.14 -1832.89,-1075.92l-0.14 0.06c-140.58,-41.08 -81.3,173.06 -184.88,285.55l0 -1679.15c101.92,110.68 144.21,862.22 388.72,1296.52l0.33 0c315.1,567.79 871.31,932.38 1628.86,932.38 757.55,0 1808.99,-806.3 1808.99,-1813.13 13.55,-681.83 -357.72,-1106.03 -358.77,-1107.28l-1551.93 -1983.93 -2972.79 0 -555.31 555.32 -555.31 -555.32 -793.74 0 0 3147.62 0 82.21 -1.71 0c-43.25,1154.05 -992.29,2076.41 -2156.92,2076.41 -1164.62,0 -2113.67,-922.36 -2156.91,-2076.41l-1.71 0 0 -82.21 0 -3147.62 -1501.97 0 0 4526.31 0.01 0c0,557.38 527.99,476.56 649.09,588.09l-1522.82 0c121.11,-111.53 649.09,-30.71 649.09,-588.09l0.02 0 0 -4526.31 -3484.35 0 0 4526.31 0.01 0c0,557.38 527.99,476.56 649.1,588.09l-1522.82 0c121.1,-111.53 649.09,-30.71 649.09,-588.09l0.01 0 0 -4526.31 -1018.86 0 0 0.02c-557.38,0 -476.56,527.99 -588.09,649.09l0 -1522.82c111.53,121.1 30.71,649.09 588.09,649.09l0 0.02 1018.86 0 0 -4556.83 -0.01 0c0,-557.38 -527.99,-476.56 -649.09,-588.08l1522.82 0c-121.11,111.52 -649.1,30.7 -649.1,588.08l-0.01 0 0 4556.83 3484.35 0 0 -4556.83 -0.02 0c0,-557.38 -527.98,-476.56 -649.09,-588.08l1522.82 0c-121.1,111.52 -649.09,30.7 -649.09,588.08l-0.01 0 0 4556.83 1501.97 0 0 -4556.83 -0.01 0c0,-557.38 -527.99,-476.56 -649.1,-588.08l1522.82 0c-121.1,111.52 -649.09,30.7 -649.09,588.08l-0.01 0 0 4556.83 3868.03 0 0 -4556.83 -0.01 0c0,-557.38 -527.99,-476.56 -649.1,-588.08l1522.82 0c-121.1,111.52 -649.09,30.7 -649.09,588.08l-0.01 0 0 4556.83 793.72 0zm-1018.33 3372.22l0 -3147.62 -3868.03 0 0 3147.62c0,1058.28 875.73,1930.98 1934.01,1930.98 1058.28,0 1934.02,-872.7 1934.02,-1930.98zm1018.33 2702.79l555.33 -555.33 555.33 555.33 11147.79 0 0 -0.01c557.38,0 476.56,-527.99 588.09,-649.1l0 1522.82c-111.53,-121.1 -30.71,-649.09 -588.09,-649.09l0 -0.01 -11147.81 0 -555.31 555.32 -555.31 -555.32 -11565.39 0 0 0.01c-557.38,0 -476.56,527.99 -588.09,649.09l0 -1522.82c111.53,121.11 30.71,649.1 588.09,649.1l0 0.01 11565.37 0zm12258.45 -12150.03l-11147.79 0 -555.33 -555.33 -555.33 555.33 -11565.37 0 0 -0.01c-557.38,0 -476.56,-527.99 -588.09,-649.09l0 1522.82c111.53,-121.11 30.71,-649.1 588.09,-649.1l0 -0.01 11565.39 0 555.31 555.32 555.31 -555.32 11147.81 0 0 0.01c557.38,0 476.56,527.99 588.09,649.1l0 -1522.82c-111.53,121.1 -30.71,649.09 -588.09,649.09l0 0.01z"/>
 </g>
</svg>
